<svg xmlns="http://www.w3.org/2000/svg" viewBox="0 0 49.16 42.18"><defs><style>.cls-1{fill:none;stroke:#4f3f43;stroke-linecap:round;stroke-linejoin:round;}</style></defs><title>hear</title><g id="Objects"><path class="cls-1" d="M39.33,41.07a9,9,0,1,0,0-18Z"/><rect class="cls-1" x="36.92" y="23.06" width="2.41" height="18.01"/><path class="cls-1" d="M39.34,23.06V15c0-7.67-7.12-13.88-14.79-13.88S9.76,7.32,9.76,15v8.07"/><path class="cls-1" d="M9.83,23.06a9,9,0,0,0,0,18Z"/><rect class="cls-1" x="9.83" y="23.06" width="2.34" height="18.01"/><path class="cls-1" d="M25.42,22.69c9.8-.63,7.51-9.45,7.51-9.45S23.82,13,25.42,22.69Z"/><line class="cls-1" x1="25.42" y1="22.69" x2="30.76" y2="15.97"/><path class="cls-1" d="M24.9,27.52c-9.77,1-8.95-8.1-8.95-8.1S24.9,17.71,24.9,27.52Z"/><line class="cls-1" x1="24.9" y1="27.52" x2="18.54" y2="21.76"/><line class="cls-1" x1="25.43" y1="22.49" x2="25.43" y2="34.39"/></g></svg>